<?xml version="1.0" standalone="no"?>
<!DOCTYPE svg PUBLIC "-//W3C//DTD SVG 20010904//EN"
 "http://www.w3.org/TR/2001/REC-SVG-20010904/DTD/svg10.dtd">
<svg version="1.0" xmlns="http://www.w3.org/2000/svg"
 width="602.000000pt" height="600.000000pt" viewBox="0 0 602.000000 600.000000"
 preserveAspectRatio="xMidYMid meet">

<g transform="translate(0.000000,600.000000) scale(0.100000,-0.100000)"
fill="#000000" stroke="none">
<path d="M2865 5989 c-285 -30 -482 -67 -680 -128 -733 -225 -1341 -722 -1745
-1426 -234 -405 -371 -838 -425 -1334 -26 -246 -15 -474 36 -731 97 -486 418
-918 848 -1138 64 -33 144 -70 178 -82 59 -21 63 -25 69 -59 41 -255 99 -415
207 -576 58 -87 181 -202 275 -258 180 -108 581 -216 922 -247 82 -8 262 -10
525 -7 431 5 492 10 771 73 457 102 656 221 817 490 67 112 140 335 162 495
l6 46 67 22 c532 174 990 717 1098 1301 26 141 32 619 9 790 -49 376 -155 714
-335 1070 -383 752 -1008 1305 -1751 1551 -233 76 -426 116 -699 143 -167 17
-231 18 -355 5z m443 -250 c56 -7 100 -14 98 -17 -3 -2 -60 2 -128 9 -68 7
-186 13 -263 12 -137 -1 -439 -33 -500 -53 l-30 -10 30 4 c19 3 37 -2 49 -12
14 -13 20 -14 23 -4 9 26 29 -7 27 -43 -2 -20 1 -33 5 -30 11 6 41 -4 41 -14
0 -4 -28 -15 -62 -25 -68 -19 -161 -56 -155 -62 2 -3 24 5 49 16 75 33 266 77
388 90 711 75 1390 -384 1569 -1060 179 -678 -172 -1384 -829 -1665 -333 -142
-713 -158 -1061 -45 -365 119 -680 392 -848 733 -99 200 -142 381 -144 602 -2
255 38 427 154 658 21 42 37 77 35 77 -2 0 -20 -28 -39 -62 -34 -60 -53 -105
-101 -231 -18 -46 -24 -55 -35 -45 -10 11 -11 10 -6 -4 4 -11 2 -18 -4 -18
-17 0 -81 -61 -81 -77 0 -8 -5 -13 -12 -11 -13 5 -48 -26 -48 -41 0 -6 -10
-17 -22 -25 -17 -12 -25 -13 -37 -3 -14 10 -14 10 -3 -5 11 -14 10 -20 -10
-40 -20 -20 -23 -21 -26 -5 -2 9 -8 15 -13 12 -5 -4 -5 -14 1 -26 12 -21 1
-25 -19 -6 -10 8 -12 8 -7 0 3 -6 2 -14 -4 -18 -6 -4 -8 -11 -4 -16 3 -5 2 -9
-3 -8 -22 5 -86 -39 -77 -53 3 -4 0 -8 -7 -8 -7 0 -27 -11 -45 -25 -18 -14
-37 -25 -42 -25 -6 0 -12 -4 -14 -8 -4 -11 -81 -57 -90 -54 -5 1 -8 -3 -8 -9
0 -6 -9 -8 -21 -4 -15 5 -19 4 -15 -4 4 -6 4 -11 -1 -11 -4 -1 -25 -3 -46 -6
-22 -3 -53 -3 -71 0 -32 6 -33 9 -45 77 -7 39 -15 68 -17 66 -3 -2 3 -46 11
-98 22 -132 30 -390 16 -532 -44 -446 -207 -839 -478 -1153 -23 -26 -44 -46
-47 -44 -12 13 -38 178 -48 316 -35 470 87 1019 327 1469 119 224 140 261 198
348 381 578 955 989 1612 1157 329 84 620 105 933 69z m207 -34 c67 -17 36
-18 -40 -1 -33 8 -49 14 -35 14 14 0 48 -6 75 -13z m130 -30 c54 -17 33 -18
-30 -1 -27 8 -41 14 -30 14 11 0 38 -5 60 -13z m72 -21 c-3 -3 -12 -4 -19 -1
-8 3 -5 6 6 6 11 1 17 -2 13 -5z m40 -10 c-3 -3 -12 -4 -19 -1 -8 3 -5 6 6 6
11 1 17 -2 13 -5z m163 -56 c10 -6 7 -7 -10 -2 -14 3 -32 11 -40 16 -10 6 -7
7 10 2 14 -3 32 -11 40 -16z m130 -48 c8 -5 11 -10 5 -10 -5 0 -17 5 -25 10
-8 5 -10 10 -5 10 6 0 17 -5 25 -10z m100 -45 c14 -8 21 -14 15 -14 -5 0 -21
6 -35 14 -14 8 -20 14 -15 14 6 0 21 -6 35 -14z m130 -70 c0 -3 -18 4 -40 15
-22 11 -40 23 -40 25 0 3 18 -4 40 -15 22 -11 40 -23 40 -25z m105 -60 l20
-16 -20 10 c-11 5 -29 17 -40 26 l-20 16 20 -10 c11 -5 29 -17 40 -26z m95
-61 c0 -2 -9 0 -20 6 -11 6 -20 13 -20 16 0 2 9 0 20 -6 11 -6 20 -13 20 -16z
m70 -50 c0 -3 -13 4 -30 16 -16 12 -30 24 -30 26 0 3 14 -4 30 -16 17 -12 30
-24 30 -26z m242 -191 c54 -46 134 -126 180 -176 115 -129 138 -159 44 -57
-115 123 -218 221 -328 312 -54 45 -98 83 -98 85 0 7 95 -70 202 -164z m348
-373 c17 -22 29 -40 27 -40 -3 0 -20 18 -37 40 -17 22 -29 40 -27 40 3 0 20
-18 37 -40z m80 -106 c18 -26 29 -45 24 -42 -5 4 -25 28 -44 54 -18 26 -29 45
-24 42 5 -4 25 -28 44 -54z m50 -74 c6 -11 8 -20 6 -20 -3 0 -10 9 -16 20 -6
11 -8 20 -6 20 3 0 10 -9 16 -20z m46 -75 c45 -67 172 -307 228 -431 116 -257
194 -520 233 -779 25 -171 25 -556 0 -715 -10 -63 -22 -119 -27 -123 -15 -16
-174 193 -264 349 -57 98 -134 278 -171 398 -116 382 -125 802 -25 1200 20 81
20 87 4 118 -20 40 -14 35 22 -17z m-3852 -10 c-4 -8 -11 -15 -16 -15 -6 0 -5
6 2 15 7 8 14 15 16 15 2 0 1 -7 -2 -15z m-1115 -2229 c0 -6 -11 20 -25 58
-13 39 -24 75 -23 80 0 6 11 -20 25 -58 13 -39 24 -75 23 -80z m5352 47 c-12
-20 -14 -14 -5 12 4 9 9 14 11 11 3 -2 0 -13 -6 -23z m-20 -50 c-12 -20 -14
-14 -5 12 4 9 9 14 11 11 3 -2 0 -13 -6 -23z m-40 -92 c-17 -34 -33 -61 -36
-61 -3 0 10 29 27 65 18 35 34 63 36 61 2 -2 -11 -31 -27 -65z m-2410 -42
c491 -38 901 -165 1217 -376 126 -84 219 -167 227 -202 9 -43 -13 -323 -34
-425 -49 -233 -158 -430 -299 -541 -151 -119 -425 -212 -762 -260 -261 -37
-905 -37 -1160 -1 -203 29 -422 85 -566 144 -337 140 -523 465 -541 947 l-6
160 74 70 c293 276 776 444 1409 488 109 8 317 6 441 -4z m2349 -69 c-6 -11
-13 -20 -16 -20 -2 0 0 9 6 20 6 11 13 20 16 20 2 0 0 -9 -6 -20z m-5120 -20
c6 -11 8 -20 6 -20 -3 0 -10 9 -16 20 -6 11 -8 20 -6 20 3 0 10 -9 16 -20z
m5048 -87 c-95 -138 -295 -331 -413 -398 -30 -16 -30 -16 -5 2 192 141 307
252 404 391 32 45 60 82 62 82 3 0 -19 -35 -48 -77z m-5003 15 c16 -24 22 -38
14 -31 -15 12 -53 73 -46 73 2 0 17 -19 32 -42z m71 -95 c21 -26 33 -44 27
-40 -14 9 -77 87 -70 87 3 0 22 -21 43 -47z m257 -246 c37 -27 67 -51 67 -54
0 -14 -136 94 -209 166 l-86 83 80 -73 c44 -40 110 -95 148 -122z m294 -84
c-3 -10 -5 -2 -5 17 0 19 2 27 5 18 2 -10 2 -26 0 -35z m-177 1 c0 -2 -9 0
-20 6 -11 6 -20 13 -20 16 0 2 9 0 20 -6 11 -6 20 -13 20 -16z m3921 -95 c7
-4 4 -9 -5 -12 -14 -6 -16 3 -14 61 2 67 2 67 5 12 3 -30 9 -57 14 -61z
m-3805 33 c-5 -4 -106 46 -106 53 0 3 25 -7 55 -22 30 -15 53 -29 51 -31z
m3994 53 c0 -2 -13 -11 -30 -20 -38 -19 -40 -11 -2 9 31 17 32 18 32 11z
m-140 -75 c-8 -5 -19 -10 -25 -10 -5 0 -3 5 5 10 8 5 20 10 25 10 6 0 3 -5 -5
-10z"/>
<path d="M2380 5470 c-8 -5 -10 -10 -5 -10 6 0 17 5 25 10 8 5 11 10 5 10 -5
0 -17 -5 -25 -10z"/>
<path d="M2328 5444 c-38 -20 -36 -28 2 -9 17 9 30 18 30 20 0 7 -1 6 -32 -11z"/>
<path d="M2264 5404 c-18 -14 -18 -15 4 -4 12 6 22 13 22 15 0 8 -5 6 -26 -11z"/>
<path d="M2150 5329 l-35 -30 38 26 c33 24 43 35 34 35 -1 0 -18 -14 -37 -31z"/>
<path d="M2089 5283 c-13 -16 -12 -17 4 -4 9 7 17 15 17 17 0 8 -8 3 -21 -13z"/>
<path d="M1975 5178 l-80 -83 83 80 c76 74 87 85 79 85 -1 0 -38 -37 -82 -82z"/>
<path d="M1864 5058 l-19 -23 23 19 c21 18 27 26 19 26 -2 0 -12 -10 -23 -22z"/>
<path d="M1792 4963 c-26 -38 -34 -53 -29 -53 2 0 16 18 31 40 29 45 28 56 -2
13z"/>
<path d="M772 4240 c0 -14 2 -19 5 -12 2 6 2 18 0 25 -3 6 -5 1 -5 -13z"/>
<path d="M2350 1802 c-78 -39 -110 -155 -118 -427 -7 -294 17 -460 79 -530 26
-30 38 -35 74 -35 118 0 155 126 155 533 0 319 -21 426 -89 461 -39 20 -58 20
-101 -2z m94 -85 c29 -40 35 -170 11 -233 -28 -75 -84 -79 -116 -10 -33 73
-21 210 23 263 17 21 59 11 82 -20z"/>
<path d="M3600 1807 c-38 -19 -66 -70 -81 -144 -19 -93 -19 -549 0 -653 25
-142 65 -200 137 -200 53 0 85 25 112 88 34 78 44 173 44 412 0 229 -12 331
-45 410 -36 82 -105 119 -167 87z m89 -78 c39 -42 50 -177 21 -254 -5 -13 -20
-31 -34 -40 -31 -21 -59 -8 -83 38 -23 44 -23 189 0 234 25 48 64 57 96 22z"/>
</g>
</svg>
